# xmcd CD database file
#
# Track frame offsets:
#	150
#	14341
#	25047
#	37906
#	59006
#	75584
#	102259
#	120401
#	142134
#	164063
#	186904
#	209367
#	224645
#	246046
#	268122
#	275390
#	289036
#	302502
#
# Disc length: 4221 seconds
#
# Revision: 0
# Processed by: cddbd v1.5.2PL0 Copyright (c) Steve Scherf et al.
# Submitted via: CDex 1.70beta2
#
DISCID=0b107b12
DTITLE=Nina Simone - The Real... 2
DYEAR=2012
DGENRE=Jazz
TTITLE0=I Wish I Knew How It Would Feel To Be Free
TTITLE1=The Look Of Love
TTITLE2=To Be Young, Gifted And Black
TTITLE3=Revolution, Pts. 1 and 2
TTITLE4=Turn! Turn! Turn! (To Everything There Is A Season)
TTITLE5=The Times They Are A-Changin'
TTITLE6=I Shall Be Released
TTITLE7=Just Like Tom Thumb's Blues
TTITLE8=Just Like A Woman
TTITLE9=Suzanne [Live]
TTITLE10=Who Knows Where The Time Goes [Live]
TTITLE11=Black Is The Color Of My True Love's Hair [Live]
TTITLE12=I Think It's Going To Rain Today [Live]
TTITLE13=I Get Along Without You Very Well (Except Sometimes)
TTITLE14=Compassion (Aka Compensation)
TTITLE15=Seems I'm Never Tired Lovin' You
TTITLE16=Nobody's Fault But Mine
TTITLE17=Everyone's Gone To The Moon
EXTD=YEAR: 2012
EXTT0=
EXTT1=
EXTT2=
EXTT3=
EXTT4=
EXTT5=
EXTT6=
EXTT7=
EXTT8=
EXTT9=
EXTT10=
EXTT11=
EXTT12=
EXTT13=
EXTT14=
EXTT15=
EXTT16=
EXTT17=
PLAYORDER=
